<svg id="Layer_1" data-name="Layer 1" xmlns="http://www.w3.org/2000/svg"
     viewBox="0 0 394.61 166.64"
     width="237px" height="100px">
    <defs>
        <style>.cls-1{fill:#fff;}.cls-2{fill:#ef5427;}.cls-3{fill:#00bd5c;}.cls-4{fill:#fcb61a;}.cls-5{fill:#2f6ae0;}
        </style>
    </defs>
    <title>logo_hacktalks</title>
    <g id="_Group_" data-name="&lt;Group&gt;">
        <g id="_Group_2" data-name="&lt;Group&gt;">
            <path id="_Compound_Path_" data-name="&lt;Compound Path&gt;" class="cls-1"
                  d="M36,130.49h5.12v-32H36V94H52.1v4.47H46.93v13.66H68.2V98.46H63V94h16.1v4.47H74v32h5.12V135H63v-4.53H68.2v-13.6H46.93v13.6H52.1V135H36Z"
                  transform="translate(-34.19 -40.18)"/>
        </g>
        <g id="_Group_3" data-name="&lt;Group&gt;">
            <path id="_Compound_Path_2" data-name="&lt;Compound Path&gt;" class="cls-1"
                  d="M82.84,130.49h4L99.87,94h6.57l13.08,36.5h4V135H109.23v-4.53h4.36l-3.2-9.13H95.86l-3.19,9.13h4.41V135H82.84Zm26.1-13.78-5-14.24a14.34,14.34,0,0,1-.7-3.14h-.17a19,19,0,0,1-.7,3.14l-5.05,14.24Z"
                  transform="translate(-34.19 -40.18)"/>
        </g>
        <g id="_Group_4" data-name="&lt;Group&gt;">
            <path id="_Compound_Path_3" data-name="&lt;Compound Path&gt;" class="cls-1"
                  d="M147,93.29c4.94,0,15.63,1.8,15.63,8.14v5h-5.4v-3.2c0-3.6-6.22-4.94-10-4.94-8.78,0-15.23,6.45-15.23,15.75,0,9.71,6.63,16.62,15.58,16.62,2.9,0,10.23-1,10.23-4.82v-3.2h5.4v5c0,6-10.29,8.08-16,8.08-12.32,0-21.22-9.48-21.22-21.45A20.55,20.55,0,0,1,147,93.29Z"
                  transform="translate(-34.19 -40.18)"/>
        </g>
        <g id="_Group_5" data-name="&lt;Group&gt;">
            <path id="_Compound_Path_4" data-name="&lt;Compound Path&gt;" class="cls-1"
                  d="M169.5,130.49h5.11v-32H169.5V94h15.4v4.47h-4.48v12.91h5.29l8.95-12.91h-3.78V94h13.9v4.47h-4l-10.63,14.82v.12a6,6,0,0,1,2.32,2.73L199.89,129a2.9,2.9,0,0,0,2.91,1.51h1.92V135h-4.13c-3.43,0-4.42-.81-5.7-3.08L187,117.76a3.16,3.16,0,0,0-3.2-1.63h-3.37v14.36h5.06V135h-16Z"
                  transform="translate(-34.19 -40.18)"/>
        </g>
    </g>
    <g id="_Group_6" data-name="&lt;Group&gt;">
        <g id="_Group_7" data-name="&lt;Group&gt;">
            <path id="_Compound_Path_5" data-name="&lt;Compound Path&gt;" class="cls-1"
                  d="M269.11,99.72h-8.27a1.14,1.14,0,0,0-1.28,1.28v2.62h-5.19V98.2c0-2.62.88-3.49,3.5-3.49h28.32c2.62,0,3.49.87,3.49,3.49v5.42H284.5V101a1.14,1.14,0,0,0-1.28-1.28h-8.28v36.13h-5.83Z"
                  transform="translate(-34.19 -40.18)"/>
        </g>
        <g id="_Group_8" data-name="&lt;Group&gt;">
            <path id="_Compound_Path_6" data-name="&lt;Compound Path&gt;" class="cls-1"
                  d="M307,117.49h1.28v-.29c0-5.18-1.92-7-6.53-7-1.4,0-4.83.35-4.83,2.27v1.69H291.6V111.2c0-4.84,7.35-5.54,10.2-5.54,9.56,0,12.12,5,12.12,11.54v12.53A1.14,1.14,0,0,0,315.2,131h2.39v4.84h-5.3c-2.62,0-3.67-1.28-3.67-3.38a12.46,12.46,0,0,1,.12-1.75h-.12a10.07,10.07,0,0,1-9.38,5.83c-5.07,0-10-3.09-10-9C289.21,118.07,302,117.49,307,117.49ZM300.46,132c4.78,0,7.87-5,7.87-9.38v-1h-1.46c-4.25,0-11.94.23-11.94,5.65C294.93,129.67,296.73,132,300.46,132Z"
                  transform="translate(-34.19 -40.18)"/>
        </g>
        <g id="_Group_9" data-name="&lt;Group&gt;">
            <path id="_Compound_Path_7" data-name="&lt;Compound Path&gt;" class="cls-1"
                  d="M322.87,100.83a1.15,1.15,0,0,0-1.28-1.29H319.2V94.71h5.59c2.62,0,3.73,1.11,3.73,3.73v31.29A1.14,1.14,0,0,0,329.8,131h2.39v4.84H326.6c-2.63,0-3.73-1.11-3.73-3.73Z"
                  transform="translate(-34.19 -40.18)"/>
        </g>
        <g id="_Group_10" data-name="&lt;Group&gt;">
            <path id="_Compound_Path_8" data-name="&lt;Compound Path&gt;" class="cls-1"
                  d="M337.64,100.83a1.14,1.14,0,0,0-1.28-1.29H334V94.71h5.59c2.63,0,3.73.76,3.73,3.38V117.2h2.63a3.81,3.81,0,0,0,3.08-1.28l6.82-9.56h6.47l-8,11a7.22,7.22,0,0,1-2.22,2.21v.12s1,.35,2,2.21l4.37,8c.47.93,1.05,1.16,2.51,1.16h1.81v4.84h-4.08c-2.74,0-3.62-.47-4.9-2.74l-5.36-9.91a3.15,3.15,0,0,0-2.91-1.22h-2.22v13.87h-5.65Z"
                  transform="translate(-34.19 -40.18)"/>
        </g>
        <g id="_Group_11" data-name="&lt;Group&gt;">
            <path id="_Compound_Path_9" data-name="&lt;Compound Path&gt;" class="cls-1"
                  d="M368,127.57s3.49,4.37,8.91,4.37c2.74,0,5.13-1.22,5.13-3.78,0-5.31-16.08-4.72-16.08-14.22,0-5.65,5-8.28,11-8.28,3.56,0,9.68,1.23,9.68,5.71v2.8h-5.07v-1.46c0-1.74-2.63-2.5-4.43-2.5-3.32,0-5.48,1.16-5.48,3.49,0,5.6,16.08,4.37,16.08,14.22,0,5.25-4.66,8.63-10.84,8.63a15.17,15.17,0,0,1-11.77-5.19Z"
                  transform="translate(-34.19 -40.18)"/>
        </g>
    </g>
    <g id="_Group_12" data-name="&lt;Group&gt;">
        <path id="_Path_" data-name="&lt;Path&gt;" class="cls-2"
              d="M351.07,206.82a2.52,2.52,0,0,1-2-.94l-19.64-24.11-31.92.2c-26.19-.41-49.5-14.77-60.9-37.47a2.53,2.53,0,0,1,4.53-2.27c10.55,21,32.16,34.29,56.39,34.67l34.3-.21,21.17,26a2.53,2.53,0,0,1-2,4.14Z"
              transform="translate(-34.19 -40.18)"/>
    </g>
    <path class="cls-3"
          d="M273.21,182a71.77,71.77,0,0,1-34.39-25.27,69.29,69.29,0,0,1,0-82,71.77,71.77,0,0,1,34.39-25.27,2.54,2.54,0,0,0-1.67-4.79,76.89,76.89,0,0,0-36.8,27.06,74.33,74.33,0,0,0,0,88,76.81,76.81,0,0,0,36.8,27.05,2.47,2.47,0,0,0,.83.15,2.54,2.54,0,0,0,.84-4.93Z"
          transform="translate(-34.19 -40.18)"/>
    <path class="cls-4"
          d="M416.65,112.82a2.54,2.54,0,0,0-2.54,2.53,59.43,59.43,0,0,1-6.34,26.92c-9.79,19.51-29.8,32.58-52.2,34.1a2.53,2.53,0,0,0,.16,5.06h.18c24.19-1.65,45.79-15.78,56.39-36.88a64.59,64.59,0,0,0,6.88-29.2A2.53,2.53,0,0,0,416.65,112.82Z"
          transform="translate(-34.19 -40.18)"/>
    <path class="cls-4"
          d="M353.12,49.92l-54.91-.2c-26.13.41-49.44,14.76-60.84,37.47a65,65,0,0,0-3.37,8,2.53,2.53,0,0,0,1.57,3.23,2.62,2.62,0,0,0,.82.14,2.55,2.55,0,0,0,2.4-1.71,59.71,59.71,0,0,1,3.11-7.38c10.54-21,32.15-34.3,56.34-34.67l54.86.2h0a2.54,2.54,0,0,0,0-5.07Z"
          transform="translate(-34.19 -40.18)"/>
    <path class="cls-5"
          d="M414.38,71.68a76.89,76.89,0,0,0-36.8-27.06,4.7,4.7,0,0,0-.51-.12,79.55,79.55,0,0,0-24.79-4.32H319.89a2.54,2.54,0,0,0,0,5.07h32.35A73.62,73.62,0,0,1,380,51.05a2.51,2.51,0,0,0,.58.16A71.6,71.6,0,0,1,410.3,74.68a68.74,68.74,0,0,1,13.44,41c0,27.29-15.63,51.59-40.8,63.41a2.54,2.54,0,0,0,1.08,4.83,2.61,2.61,0,0,0,1.08-.24c27-12.67,43.71-38.73,43.71-68A73.72,73.72,0,0,0,414.38,71.68Z"
          transform="translate(-34.19 -40.18)"/>
    <path class="cls-5"
          d="M220.42,144.34a.53.53,0,0,0,0-.13v-.09a1.09,1.09,0,0,0,0-.18.13.13,0,0,0,0-.06.75.75,0,0,0,0-.2v0l-.06-.22h0l0-.15a78.08,78.08,0,0,1-.73-53.18,2.54,2.54,0,0,0-4.79-1.67,83.38,83.38,0,0,0-.43,53.23l-177.59,0h0a2.53,2.53,0,1,0,0,5.06l181.17,0h0a2.52,2.52,0,0,0,2.5-2.17.09.09,0,0,0,0,0A.76.76,0,0,0,220.42,144.34Z"
          transform="translate(-34.19 -40.18)"/>
</svg>