<?xml version="1.0" encoding="UTF-8"?>
<svg width="75px" height="75px" viewBox="0 0 75 75" version="1.1" xmlns="http://www.w3.org/2000/svg" xmlns:xlink="http://www.w3.org/1999/xlink">
    <!-- Generator: Sketch 50.2 (55047) - http://www.bohemiancoding.com/sketch -->
    <title>backup</title>
    <desc>Created with Sketch.</desc>
    <defs></defs>
    <g id="backup" stroke="none" stroke-width="1" fill="white" fill-rule="evenodd">
        <path d="M65.508,4.688 C64.922,1.992 62.578,0 59.766,0 C56.484,0 53.906,2.578 53.906,5.859 L53.906,18.75 L51.562,18.75 L51.562,23.438 L53.906,23.438 L53.906,25.781 L49.219,25.781 L49.219,30.469 L53.906,30.469 L53.906,42.188 L39.844,42.188 L39.844,44.531 L44.648,44.531 C45.234,47.227 47.578,49.219 50.391,49.219 C53.203,49.219 55.547,47.227 56.133,44.531 L75,44.531 L75,42.188 L56.25,42.188 L56.25,30.469 L60.938,30.469 L60.938,25.781 L56.25,25.781 L56.25,16.406 L58.594,16.406 L58.594,11.719 L56.25,11.719 L56.25,7.031 L75,7.031 L75,4.688 L65.508,4.688 Z M50.391,46.875 C48.867,46.875 47.578,45.938 47.109,44.531 L53.672,44.531 C53.203,45.938 51.914,46.875 50.391,46.875 Z M59.766,2.344 C61.289,2.344 62.578,3.281 63.047,4.688 L56.484,4.688 C56.953,3.281 58.242,2.344 59.766,2.344 Z" id="Fill-1" fill="white"></path>
        <polygon id="Fill-2" fill="white" points="0 16.407 4.688 16.407 4.688 11.719 0 11.719"></polygon>
        <polygon id="Fill-3" fill="white" points="0 23.438 7.031 23.438 7.031 18.75 0 18.75"></polygon>
        <polygon id="Fill-4" fill="white" points="9.375 23.438 14.063 23.438 14.063 18.75 9.375 18.75"></polygon>
        <polygon id="Fill-5" fill="white" points="0 30.469 11.719 30.469 11.719 25.781 0 25.781"></polygon>
        <polygon id="Fill-6" fill="white" points="21.094 30.469 25.782 30.469 25.782 25.781 21.094 25.781"></polygon>
        <polygon id="Fill-7" fill="white" points="23.438 23.438 28.126 23.438 28.126 18.75 23.438 18.75"></polygon>
        <polygon id="Fill-8" fill="white" points="28.125 30.469 32.813 30.469 32.813 25.781 28.125 25.781"></polygon>
        <polygon id="Fill-9" fill="white" points="44.531 23.438 49.219 23.438 49.219 18.75 44.531 18.75"></polygon>
        <polygon id="Fill-10" fill="white" points="42.188 30.469 46.876 30.469 46.876 25.781 42.188 25.781"></polygon>
        <polygon id="Fill-11" fill="white" points="58.594 23.438 63.282 23.438 63.282 18.75 58.594 18.75"></polygon>
        <polygon id="Fill-12" fill="white" points="65.625 23.438 75 23.438 75 18.75 65.625 18.75"></polygon>
        <polygon id="Fill-13" fill="white" points="63.281 30.469 75 30.469 75 25.781 63.281 25.781"></polygon>
        <polygon id="Fill-14" fill="white" points="0 37.5 7.031 37.5 7.031 32.812 0 32.812"></polygon>
        <polygon id="Fill-15" fill="white" points="58.594 37.5 65.625 37.5 65.625 32.812 58.594 32.812"></polygon>
        <polygon id="Fill-16" fill="white" points="67.969 37.5 75 37.5 75 32.812 67.969 32.812"></polygon>
        <path d="M51.562,37.5 L51.562,32.812 L37.5,32.812 L37.5,30.469 L39.844,30.469 L39.844,25.781 L37.5,25.781 L37.5,23.438 L42.188,23.438 L42.188,18.75 L37.5,18.75 L37.5,7.031 L51.562,7.031 L51.562,4.688 L46.758,4.688 C46.172,1.992 43.828,0 41.016,0 C37.734,0 35.156,2.578 35.156,5.859 L35.156,11.719 L32.812,11.719 L32.812,16.406 L35.156,16.406 L35.156,18.75 L30.469,18.75 L30.469,23.438 L35.156,23.438 L35.156,32.812 L21.094,32.812 L21.094,37.5 L35.156,37.5 L35.156,42.188 L21.094,42.188 L21.094,44.531 L25.898,44.531 C26.484,47.227 28.828,49.219 31.641,49.219 C34.922,49.219 37.5,46.641 37.5,43.359 L37.5,37.5 L51.562,37.5 Z M41.016,2.344 C42.539,2.344 43.828,3.281 44.297,4.688 L37.734,4.688 C38.203,3.281 39.492,2.344 41.016,2.344 Z M31.641,46.875 C30.117,46.875 28.828,45.938 28.359,44.531 L34.922,44.531 C34.453,45.938 33.164,46.875 31.641,46.875 Z" id="Fill-17" fill="white"></path>
        <polygon id="Fill-18" fill="white" points="25.781 16.407 30.469 16.407 30.469 11.719 25.781 11.719"></polygon>
        <polygon id="Fill-19" fill="white" points="39.844 16.407 44.532 16.407 44.532 11.719 39.844 11.719"></polygon>
        <polygon id="Fill-20" fill="white" points="46.875 16.407 51.563 16.407 51.563 11.719 46.875 11.719"></polygon>
        <polygon id="Fill-21" fill="white" points="65.625 16.407 70.313 16.407 70.313 11.719 65.625 11.719"></polygon>
        <polygon id="Fill-22" fill="white" points="16.406 60.938 18.75 60.938 18.75 56.25 16.406 56.25"></polygon>
        <path d="M18.75,49.336 L18.75,23.438 L21.094,23.438 L21.094,18.75 L18.75,18.75 L18.75,16.406 L23.438,16.406 L23.438,11.719 L18.75,11.719 L18.75,7.031 L32.812,7.031 L32.812,4.688 L28.008,4.688 C27.422,1.992 25.078,0 22.266,0 C19.453,0 17.109,1.992 16.523,4.688 L0,4.688 L0,7.031 L16.406,7.031 L16.406,11.719 L11.719,11.719 L11.719,16.406 L16.406,16.406 L16.406,25.781 L14.062,25.781 L14.062,30.469 L16.406,30.469 L16.406,32.812 L9.375,32.812 L9.375,37.5 L16.406,37.5 L16.406,42.188 L0,42.188 L0,44.531 L16.406,44.531 L16.406,49.336 C12.422,49.922 9.375,53.32 9.375,57.422 L9.375,66.797 C9.375,71.367 13.008,75 17.578,75 C22.148,75 25.781,71.367 25.781,66.797 L25.781,57.422 C25.781,53.32 22.734,49.922 18.75,49.336 Z M22.266,2.344 C23.789,2.344 25.078,3.281 25.547,4.688 L18.984,4.688 C19.453,3.281 20.742,2.344 22.266,2.344 Z M23.438,66.797 C23.438,70.078 20.859,72.656 17.578,72.656 C14.297,72.656 11.719,70.078 11.719,66.797 L11.719,57.422 C11.719,54.141 14.297,51.562 17.578,51.562 C20.859,51.562 23.438,54.141 23.438,57.422 L23.438,66.797 Z" id="Fill-23" fill="white"></path>
    </g>
</svg>
