<?xml version="1.0" encoding="UTF-8"?>
<svg width="75px" height="75px" viewBox="0 0 75 75" version="1.1" xmlns="http://www.w3.org/2000/svg" xmlns:xlink="http://www.w3.org/1999/xlink">
    <!-- Generator: Sketch 50.2 (55047) - http://www.bohemiancoding.com/sketch -->
    <title>debug</title>
    <desc>Created with Sketch.</desc>
    <defs></defs>
    <g id="debug" stroke="none" stroke-width="1" fill="white" fill-rule="evenodd">
        <polygon id="Fill-1" fill="white" points="65.625 32.812 67.969 32.812 67.969 30.469 65.625 30.469 65.625 23.438 56.25 23.438 56.25 25.781 63.281 25.781 63.281 56.25 37.5 56.25 37.5 58.594 65.625 58.594 65.625 51.562 67.969 51.562 67.969 49.219 65.625 49.219 65.625 46.875 67.969 46.875 67.969 44.531 65.625 44.531 65.625 42.188 67.969 42.188 67.969 39.844 65.625 39.844 65.625 37.5 75 37.5 75 35.156 65.625 35.156"></polygon>
        <path d="M11.719,25.781 L44.531,25.781 L44.531,30.469 L30.469,30.469 L30.469,32.812 L44.531,32.812 L44.531,35.156 L46.875,35.156 L46.875,32.812 L53.906,32.812 L53.906,18.75 L51.562,18.75 L51.562,14.062 L46.875,14.062 L46.875,18.75 L44.531,18.75 L44.531,23.438 L42.188,23.438 L42.188,18.75 L39.844,18.75 L39.844,0 L37.5,0 L37.5,18.75 L30.469,18.75 L30.469,23.438 L28.125,23.438 L28.125,18.75 L16.406,18.75 L16.406,23.438 L9.375,23.438 L9.375,35.156 L11.719,35.156 L11.719,25.781 Z M46.875,21.094 L51.562,21.094 L51.562,30.469 L46.875,30.469 L46.875,21.094 Z M32.812,21.094 L39.844,21.094 L39.844,23.438 L32.812,23.438 L32.812,21.094 Z M18.75,21.094 L25.781,21.094 L25.781,23.438 L18.75,23.438 L18.75,21.094 Z" id="Fill-2" fill="white"></path>
        <polygon id="Fill-3" fill="white" points="58.594 32.813 60.938 32.813 60.938 30.469 58.594 30.469"></polygon>
        <polygon id="Fill-4" fill="white" points="58.594 37.5 60.938 37.5 60.938 35.156 58.594 35.156"></polygon>
        <polygon id="Fill-5" fill="white" points="58.594 42.188 60.938 42.188 60.938 39.844 58.594 39.844"></polygon>
        <polygon id="Fill-6" fill="white" points="58.594 46.875 60.938 46.875 60.938 44.531 58.594 44.531"></polygon>
        <polygon id="Fill-7" fill="white" points="53.906 46.875 56.25 46.875 56.25 44.531 53.906 44.531"></polygon>
        <polygon id="Fill-8" fill="white" points="58.594 51.563 60.938 51.563 60.938 49.219 58.594 49.219"></polygon>
        <polygon id="Fill-9" fill="white" points="53.906 51.563 56.25 51.563 56.25 49.219 53.906 49.219"></polygon>
        <polygon id="Fill-10" fill="white" points="53.906 42.188 56.25 42.188 56.25 39.844 53.906 39.844"></polygon>
        <polygon id="Fill-11" fill="white" points="53.906 37.5 56.25 37.5 56.25 35.156 53.906 35.156"></polygon>
        <path d="M52.734,4.688 C50.156,4.688 48.047,6.797 48.047,9.375 L48.047,11.719 L50.391,11.719 L50.391,9.375 C50.391,8.086 51.445,7.031 52.734,7.031 L75,7.031 L75,4.688 L52.734,4.688 Z" id="Fill-12" fill="white"></path>
        <polygon id="Fill-13" fill="white" points="58.594 21.094 60.938 21.094 60.938 18.75 58.594 18.75"></polygon>
        <polygon id="Fill-14" fill="white" points="53.906 16.406 56.25 16.406 56.25 14.062 53.906 14.062"></polygon>
        <polygon id="Fill-15" fill="white" points="58.594 11.719 60.938 11.719 60.938 9.375 58.594 9.375"></polygon>
        <polygon id="Fill-16" fill="white" points="32.812 16.406 35.156 16.406 35.156 0 32.812 0"></polygon>
        <polygon id="Fill-17" fill="white" points="21.094 16.406 23.438 16.406 23.438 14.062 21.094 14.062"></polygon>
        <polygon id="Fill-18" fill="white" points="21.094 11.719 23.438 11.719 23.438 9.375 21.094 9.375"></polygon>
        <polygon id="Fill-19" fill="white" points="20.625 44.531 22.969 46.875 24.727 46.875 37.5 44.297 37.5 37.734 24.844 35.156 22.969 35.156 20.625 37.5 0 37.5 0 39.844 21.562 39.844 23.906 37.5 24.492 37.5 35.156 39.609 35.156 42.422 24.492 44.531 23.906 44.531 21.562 42.188 0 42.188 0 44.531 9.375 44.531 9.375 58.594 11.719 58.594 11.719 44.531"></polygon>
        <polygon id="Fill-20" fill="#31B38B" points="46.875 44.531 46.875 42.188 49.219 42.188 49.219 39.844 46.875 39.844 46.875 37.5 44.531 37.5 44.531 39.844 42.188 39.844 42.188 42.188 44.531 42.188 44.531 44.531"></polygon>
        <polygon id="Fill-21" fill="white" points="16.406 32.813 18.75 32.813 18.75 30.469 16.406 30.469"></polygon>
        <polygon id="Fill-22" fill="white" points="21.094 32.813 23.438 32.813 23.438 30.469 21.094 30.469"></polygon>
        <polygon id="Fill-23" fill="white" points="25.781 32.813 28.125 32.813 28.125 30.469 25.781 30.469"></polygon>
        <polygon id="Fill-24" fill="white" points="56.25 60.938 53.906 60.938 53.906 65.625 32.812 65.625 32.812 67.969 75 67.969 75 65.625 56.25 65.625"></polygon>
        <polygon id="Fill-25" fill="white" points="53.906 72.656 56.25 72.656 56.25 70.312 53.906 70.312"></polygon>
        <polygon id="Fill-26" fill="white" points="44.531 72.656 46.875 72.656 46.875 70.312 44.531 70.312"></polygon>
        <polygon id="Fill-27" fill="white" points="58.594 72.656 60.938 72.656 60.938 70.312 58.594 70.312"></polygon>
        <polygon id="Fill-28" fill="white" points="63.281 72.656 65.625 72.656 65.625 70.312 63.281 70.312"></polygon>
        <path d="M30.469,66.797 C30.469,65.039 30.938,64.219 31.523,63.281 C32.109,62.227 32.812,60.938 32.812,58.594 L35.156,58.594 L35.156,53.906 L46.875,53.906 L46.875,46.875 L44.531,46.875 L44.531,51.562 L14.062,51.562 L14.062,58.594 L16.406,58.594 C16.406,60.352 15.938,61.172 15.352,62.109 C14.766,63.164 14.062,64.453 14.062,66.797 C14.062,69.141 14.766,70.43 15.352,71.484 C15.938,72.422 16.406,73.242 16.406,75 L18.75,75 C18.75,72.656 18.047,71.367 17.461,70.312 C16.875,69.375 16.406,68.555 16.406,66.797 C16.406,65.039 16.875,64.219 17.461,63.281 C18.047,62.227 18.75,60.938 18.75,58.594 L21.094,58.594 C21.094,60.352 20.625,61.172 20.039,62.109 C19.453,63.164 18.75,64.453 18.75,66.797 C18.75,69.141 19.453,70.43 20.039,71.484 C20.625,72.422 21.094,73.242 21.094,75 L23.438,75 C23.438,72.656 22.734,71.367 22.148,70.312 C21.562,69.375 21.094,68.555 21.094,66.797 C21.094,65.039 21.562,64.219 22.148,63.281 C22.734,62.227 23.438,60.938 23.438,58.594 L25.781,58.594 C25.781,60.352 25.312,61.172 24.727,62.109 C24.141,63.164 23.438,64.453 23.438,66.797 C23.438,69.141 24.141,70.43 24.727,71.484 C25.312,72.422 25.781,73.242 25.781,75 L28.125,75 C28.125,72.656 27.422,71.367 26.836,70.312 C26.25,69.375 25.781,68.555 25.781,66.797 C25.781,65.039 26.25,64.219 26.836,63.281 C27.422,62.227 28.125,60.938 28.125,58.594 L30.469,58.594 C30.469,60.352 30,61.172 29.414,62.109 C28.828,63.164 28.125,64.453 28.125,66.797 C28.125,69.141 28.828,70.43 29.414,71.484 C30,72.422 30.469,73.242 30.469,75 L32.812,75 C32.812,72.656 32.109,71.367 31.523,70.312 C30.938,69.375 30.469,68.555 30.469,66.797 Z M16.406,56.25 L16.406,53.906 L32.812,53.906 L32.812,56.25 L16.406,56.25 Z" id="Fill-29" fill="white"></path>
    </g>
</svg>
