<?xml version="1.0" encoding="UTF-8"?>
<svg width="75px" height="75px" viewBox="0 0 75 75" version="1.1" xmlns="http://www.w3.org/2000/svg" xmlns:xlink="http://www.w3.org/1999/xlink">
    <!-- Generator: Sketch 50.2 (55047) - http://www.bohemiancoding.com/sketch -->
    <title>dissemble</title>
    <desc>Created with Sketch.</desc>
    <defs></defs>
    <g id="dissemble" stroke="none" stroke-width="1" fill="white" fill-rule="evenodd">
        <path d="M28.125,44.531 L25.781,44.531 L25.781,39.844 L28.125,39.844 L28.125,37.5 L25.781,37.5 L25.781,9.375 L26.953,9.375 L26.953,0 L22.266,0 L22.266,9.375 L23.438,9.375 L23.438,37.5 L21.094,37.5 L21.094,39.844 L23.438,39.844 L23.438,44.531 L21.094,44.531 L21.094,42.188 L18.75,42.188 L18.75,70.781 L22.969,75 L26.25,75 L30.469,70.781 L30.469,42.188 L28.125,42.188 L28.125,44.531 Z M25.312,72.656 L23.906,72.656 L21.094,69.844 L21.094,46.875 L23.438,46.875 L23.438,58.594 L25.781,58.594 L25.781,46.875 L28.125,46.875 L28.125,69.844 L25.312,72.656 Z" id="Fill-1" fill="white"></path>
        <polygon id="Fill-2" fill="white" points="23.438 63.282 25.782 63.282 25.782 60.938 23.438 60.938"></polygon>
        <polygon id="Fill-3" fill="white" points="23.438 67.969 25.782 67.969 25.782 65.625 23.438 65.625"></polygon>
        <path d="M6.094,30.469 L4.688,38.438 L4.688,70.312 L7.031,70.312 L7.031,72.656 L4.688,72.656 L4.688,75 L11.719,75 L11.719,72.656 L9.375,72.656 L9.375,70.312 L11.719,70.312 L11.719,38.672 L10.312,30.469 L6.094,30.469 Z M8.438,32.812 L9.258,37.5 L7.266,37.5 L8.086,32.812 L8.438,32.812 Z M7.031,67.969 L7.031,39.844 L9.375,39.844 L9.375,67.969 L7.031,67.969 Z" id="Fill-4" fill="white"></path>
        <path d="M57.422,29.297 L51.211,9.375 L44.766,9.375 L38.672,28.945 L38.672,29.297 C38.672,30.938 39.141,32.461 39.844,33.75 C39.023,35.391 35.156,43.828 35.156,51.562 L35.156,75 L37.5,75 L37.5,51.562 C37.5,45.586 40.195,38.789 41.367,35.859 C42.539,37.031 44.062,37.969 45.82,38.32 C43.711,41.25 39.844,47.578 39.844,53.906 L39.844,75 L42.188,75 L42.188,53.906 C42.188,47.93 46.172,41.836 48.047,39.375 C49.922,41.836 53.906,47.93 53.906,53.906 L53.906,75 L56.25,75 L56.25,53.906 C56.25,47.578 52.383,41.25 50.273,38.438 C52.031,37.969 53.555,37.148 54.727,35.977 C55.898,38.789 58.594,45.586 58.594,51.562 L58.594,75 L60.938,75 L60.938,51.562 C60.938,43.945 57.07,35.508 56.25,33.75 C56.953,32.461 57.422,30.938 57.422,29.297 Z M49.219,11.719 L49.57,11.719 L54.727,28.125 L49.219,28.125 L49.219,11.719 Z M48.047,36.328 C44.18,36.328 41.133,33.281 41.016,29.414 L46.523,11.719 L46.875,11.719 L46.875,30.469 L54.961,30.469 C54.375,33.75 51.562,36.328 48.047,36.328 Z" id="Fill-5" fill="white"></path>
        <polygon id="Fill-6" fill="white" points="9.375 9.375 11.719 9.375 11.719 14.062 14.062 14.062 14.062 9.375 16.406 9.375 16.406 4.688 9.375 4.688"></polygon>
        <polygon id="Fill-7" fill="white" points="2.344 14.062 4.688 14.062 4.688 9.375 7.031 9.375 7.031 4.688 0 4.688 0 9.375 2.344 9.375"></polygon>
        <polygon id="Fill-8" fill="white" points="9.375 21.094 11.719 21.094 11.719 25.781 14.062 25.781 14.062 21.094 16.406 21.094 16.406 16.406 9.375 16.406"></polygon>
        <polygon id="Fill-9" fill="white" points="4.688 25.781 4.688 21.094 7.031 21.094 7.031 16.406 0 16.406 0 21.094 2.344 21.094 2.344 25.781"></polygon>
        <polygon id="Fill-10" fill="white" points="72.656 9.375 58.594 9.375 58.594 11.719 72.656 11.719 72.656 14.062 67.969 14.062 67.969 16.406 72.656 16.406 72.656 75 75 75 75 4.688 72.656 4.688"></polygon>
        <polygon id="Fill-11" fill="white" points="72.656 2.344 75 2.344 75 0 72.656 0"></polygon>
        <polygon id="Fill-12" fill="white" points="67.969 63.282 70.313 63.282 70.313 60.938 67.969 60.938"></polygon>
        <polygon id="Fill-13" fill="white" points="67.969 51.563 70.313 51.563 70.313 49.219 67.969 49.219"></polygon>
        <polygon id="Fill-14" fill="white" points="67.969 39.844 70.313 39.844 70.313 37.5 67.969 37.5"></polygon>
        <polygon id="Fill-15" fill="white" points="67.969 28.125 70.313 28.125 70.313 25.781 67.969 25.781"></polygon>
    </g>
</svg>
