<?xml version="1.0" encoding="UTF-8"?>
<svg width="772px" height="320px" viewBox="0 0 772 320" version="1.1" xmlns="http://www.w3.org/2000/svg" xmlns:xlink="http://www.w3.org/1999/xlink">
    <!-- Generator: Sketch 50.2 (55047) - http://www.bohemiancoding.com/sketch -->
    <title>Logo_eHealth</title>
    <desc>Created with Sketch.</desc>
    <defs></defs>
    <g id="Logo_eHealth" stroke="none" stroke-width="1" fill="none" fill-rule="evenodd">
        <g id="Group-39">
            <path d="M121.294,282.2509 C121.323,280.4929 121.103,278.9629 120.635,277.6589 C120.166,276.3549 119.529,275.2789 118.723,274.4289 C117.917,273.5789 116.98,272.9499 115.911,272.5389 C114.841,272.1289 113.691,271.9239 112.461,271.9239 C109.765,271.9239 107.554,272.8249 105.825,274.6269 C104.096,276.4289 103.071,278.9709 102.749,282.2509 L121.294,282.2509 Z M132.192,283.7889 C132.192,284.5219 132.17,285.4749 132.127,286.6459 C132.083,287.8169 132.017,288.9159 131.929,289.9409 L102.573,289.9409 C102.573,291.9039 102.874,293.6329 103.474,295.1269 C104.074,296.6209 104.924,297.8739 106.023,298.8849 C107.122,299.8959 108.44,300.6639 109.978,301.1909 C111.516,301.7189 113.223,301.9819 115.098,301.9819 C117.266,301.9819 119.587,301.8139 122.063,301.4779 C124.539,301.1409 127.109,300.5919 129.775,299.8289 L129.775,308.3549 C128.633,308.6779 127.387,308.9699 126.04,309.2329 C124.692,309.4969 123.315,309.7309 121.909,309.9369 C120.503,310.1419 119.082,310.2949 117.647,310.3979 C116.211,310.5009 114.819,310.5519 113.472,310.5519 C110.073,310.5519 107.026,310.0679 104.331,309.1019 C101.635,308.1349 99.35,306.7069 97.476,304.8169 C95.601,302.9279 94.165,300.5919 93.169,297.8079 C92.173,295.0239 91.675,291.8029 91.675,288.1399 C91.675,284.5079 92.173,281.2039 93.169,278.2299 C94.165,275.2569 95.571,272.7079 97.388,270.5839 C99.204,268.4599 101.409,266.8189 104.002,265.6619 C106.594,264.5049 109.487,263.9259 112.681,263.9259 C115.845,263.9259 118.642,264.4169 121.074,265.3979 C123.506,266.3799 125.542,267.7489 127.183,269.5069 C128.823,271.2649 130.068,273.3589 130.918,275.7909 C131.768,278.2239 132.192,280.8889 132.192,283.7889 Z" id="Fill-3" fill="#FFFFFF"></path>
            <polygon id="Fill-5" fill="#FFFFFF" points="171.1719 309.541 171.1719 284.536 151.6599 284.536 151.6599 309.541 140.8499 309.541 140.8499 252.104 151.6599 252.104 151.6599 275.176 171.1719 275.176 171.1719 252.104 181.9829 252.104 181.9829 309.541"></polygon>
            <path d="M220.2588,282.2509 C220.2878,280.4929 220.0678,278.9629 219.5998,277.6589 C219.1308,276.3549 218.4938,275.2789 217.6878,274.4289 C216.8818,273.5789 215.9448,272.9499 214.8758,272.5389 C213.8058,272.1289 212.6558,271.9239 211.4258,271.9239 C208.7298,271.9239 206.5188,272.8249 204.7898,274.6269 C203.0608,276.4289 202.0358,278.9709 201.7138,282.2509 L220.2588,282.2509 Z M231.1568,283.7889 C231.1568,284.5219 231.1348,285.4749 231.0918,286.6459 C231.0478,287.8169 230.9818,288.9159 230.8938,289.9409 L201.5378,289.9409 C201.5378,291.9039 201.8388,293.6329 202.4388,295.1269 C203.0388,296.6209 203.8888,297.8739 204.9878,298.8849 C206.0868,299.8959 207.4048,300.6639 208.9428,301.1909 C210.4808,301.7189 212.1878,301.9819 214.0628,301.9819 C216.2308,301.9819 218.5518,301.8139 221.0278,301.4779 C223.5038,301.1409 226.0738,300.5919 228.7398,299.8289 L228.7398,308.3549 C227.5978,308.6779 226.3518,308.9699 225.0048,309.2329 C223.6568,309.4969 222.2798,309.7309 220.8738,309.9369 C219.4678,310.1419 218.0468,310.2949 216.6118,310.3979 C215.1758,310.5009 213.7838,310.5519 212.4368,310.5519 C209.0378,310.5519 205.9908,310.0679 203.2958,309.1019 C200.5998,308.1349 198.3148,306.7069 196.4408,304.8169 C194.5658,302.9279 193.1298,300.5919 192.1338,297.8079 C191.1378,295.0239 190.6398,291.8029 190.6398,288.1399 C190.6398,284.5079 191.1378,281.2039 192.1338,278.2299 C193.1298,275.2569 194.5358,272.7079 196.3528,270.5839 C198.1688,268.4599 200.3738,266.8189 202.9668,265.6619 C205.5588,264.5049 208.4518,263.9259 211.6458,263.9259 C214.8098,263.9259 217.6068,264.4169 220.0388,265.3979 C222.4708,266.3799 224.5068,267.7489 226.1478,269.5069 C227.7878,271.2649 229.0328,273.3589 229.8828,275.7909 C230.7328,278.2239 231.1568,280.8889 231.1568,283.7889 Z" id="Fill-7" fill="#FFFFFF"></path>
            <path d="M268.2032,289.8095 L261.6552,289.8095 C259.8382,289.8095 258.3002,289.9855 257.0412,290.3365 C255.7812,290.6885 254.7562,291.1715 253.9652,291.7875 C253.1742,292.4025 252.5952,293.1135 252.2292,293.9185 C251.8622,294.7245 251.6802,295.5815 251.6802,296.4895 C251.6802,298.3065 252.2662,299.6905 253.4372,300.6425 C254.6092,301.5945 256.2062,302.0705 258.2272,302.0705 C259.7222,302.0705 261.2742,301.5285 262.8862,300.4445 C264.4962,299.3615 266.2692,297.8075 268.2032,295.7865 L268.2032,289.8095 Z M269.7412,309.5405 L269.4772,303.6965 C268.5392,304.6925 267.5582,305.6085 266.5332,306.4435 C265.5072,307.2785 264.3802,308.0025 263.1492,308.6185 C261.9192,309.2335 260.5782,309.7095 259.1282,310.0465 C257.6782,310.3825 256.0892,310.5515 254.3602,310.5515 C252.0752,310.5515 250.0682,310.2145 248.3402,309.5405 C246.6112,308.8675 245.1612,307.9305 243.9892,306.7285 C242.8172,305.5275 241.9312,304.0775 241.3302,302.3775 C240.7302,300.6795 240.4302,298.8035 240.4302,296.7525 C240.4302,294.6435 240.8762,292.6955 241.7702,290.9085 C242.6632,289.1225 244.0262,287.5835 245.8572,286.2935 C247.6872,285.0045 249.9732,283.9945 252.7122,283.2615 C255.4522,282.5305 258.6672,282.1635 262.3582,282.1635 L268.2032,282.1635 L268.2032,279.4825 C268.2032,278.3395 268.0422,277.3075 267.7202,276.3845 C267.3972,275.4615 266.8772,274.6775 266.1602,274.0335 C265.4412,273.3895 264.5122,272.8905 263.3692,272.5385 C262.2262,272.1875 260.8202,272.0115 259.1502,272.0115 C256.5142,272.0115 253.9132,272.3125 251.3502,272.9135 C248.7862,273.5135 246.3032,274.3565 243.9012,275.4395 L243.9012,266.8705 C246.0392,266.0205 248.5082,265.3175 251.3062,264.7605 C254.1032,264.2055 257.0122,263.9255 260.0292,263.9255 C263.3402,263.9255 266.1822,264.2415 268.5552,264.8715 C270.9282,265.5005 272.8832,266.4465 274.4212,267.7055 C275.9592,268.9645 277.0952,270.5395 277.8272,272.4295 C278.5592,274.3195 278.9262,276.5235 278.9262,279.0425 L278.9262,309.5405 L269.7412,309.5405 Z" id="Fill-9" fill="#FFFFFF"></path>
            <polygon id="Fill-11" fill="#FFFFFF" points="302.6446 255.7959 290.0326 255.7959 290.0326 247.4459 313.6306 247.4459 313.6306 301.1919 326.5066 301.1919 326.5066 309.5409 288.4946 309.5409 288.4946 301.1919 302.6446 301.1919"></polygon>
            <path d="M364.5391,309.1015 C362.6051,309.5405 360.6571,309.8925 358.6941,310.1565 C356.7311,310.4195 354.8711,310.5515 353.1131,310.5515 C350.1841,310.5515 347.6571,310.2445 345.5331,309.6285 C343.4081,309.0135 341.6501,308.0765 340.2591,306.8165 C338.8681,305.5575 337.8421,303.9535 337.1831,302.0045 C336.5241,300.0565 336.1941,297.7355 336.1941,295.0385 L336.1941,273.2425 L324.1971,273.2425 L324.1971,264.8925 L336.1941,264.8925 L336.1941,253.4665 L347.1811,250.6105 L347.1811,264.8925 L364.5391,264.8925 L364.5391,273.2425 L347.1811,273.2425 L347.1811,294.2475 C347.1811,296.7965 347.7671,298.7235 348.9381,300.0275 C350.1101,301.3305 352.0731,301.9825 354.8271,301.9825 C356.5851,301.9825 358.2991,301.8355 359.9691,301.5425 C361.6391,301.2505 363.1621,300.9135 364.5391,300.5325 L364.5391,309.1015 Z" id="Fill-13" fill="#FFFFFF"></path>
            <path d="M403.8262,309.541 L403.8262,280.449 C403.8262,275.557 402.0092,273.11 398.3772,273.11 C396.5602,273.11 394.8242,273.843 393.1692,275.308 C391.5142,276.773 389.7632,278.765 387.9182,281.284 L387.9182,309.541 L377.1952,309.541 L377.1952,247.446 L387.9182,247.446 L387.9182,262.739 L387.3902,270.825 C388.2982,269.742 389.2212,268.768 390.1592,267.903 C391.0972,267.039 392.1072,266.314 393.1912,265.728 C394.2752,265.142 395.4472,264.695 396.7072,264.388 C397.9662,264.08 399.3582,263.926 400.8822,263.926 C403.1672,263.926 405.1592,264.3 406.8582,265.047 C408.5572,265.794 409.9782,266.849 411.1212,268.211 C412.2642,269.573 413.1202,271.214 413.6922,273.133 C414.2632,275.052 414.5492,277.197 414.5492,279.57 L414.5492,309.541 L403.8262,309.541 Z" id="Fill-15" fill="#FFFFFF"></path>
            <path d="M476.5884,282.0595 C477.2854,279.1285 475.7734,277.2845 473.8254,275.2105 C468.4634,269.4985 463.5244,263.4285 458.9504,257.0605 C448.4204,242.3975 440.7164,226.3695 435.4004,209.2755 C432.3394,199.4345 430.3594,189.3145 429.1614,179.0385 C427.9914,169.0075 427.9424,158.9495 428.4504,148.9485 C429.0584,137.0275 431.3614,125.2815 434.6964,113.7595 C437.6344,103.6035 441.5284,93.8175 446.3084,84.3875 C448.1934,80.6705 450.0394,76.9025 452.4594,73.4575 C453.1914,72.4155 453.6354,71.2435 453.4784,69.8785 C453.3504,68.7625 453.6304,67.5895 453.4224,66.4985 C452.3954,61.0955 455.0534,57.0485 458.3184,53.2135 C461.9514,48.9475 465.5024,44.6215 469.2694,40.4555 C471.3994,38.0975 473.5304,35.5585 475.8614,33.5375 C478.7334,31.0455 481.4874,28.3735 484.5104,26.0275 C490.5004,21.3795 496.5304,16.8085 502.9824,12.7785 C510.1974,8.2695 517.4734,3.9025 525.3744,0.6205 C526.6944,0.0725 527.3184,0.3065 527.8484,1.4925 C529.3774,4.9085 530.9014,8.3265 532.4964,11.7115 C532.9314,12.6325 532.7144,12.9815 531.8184,13.3745 C518.3984,19.2475 506.0984,26.9495 494.9334,36.2715 C489.2354,41.0275 483.8864,46.1925 478.7914,51.6755 C472.0374,58.9455 465.9754,66.6485 460.6864,74.9185 C451.0724,89.9555 444.2844,106.2175 440.2394,123.5505 C438.2674,131.9995 437.0384,140.5495 436.4254,149.2175 C435.9724,155.6145 435.8434,162.0135 436.1794,168.3725 C437.1574,186.9235 441.1794,204.8495 448.4094,222.0635 C454.7884,237.2595 463.3414,251.1655 474.0474,263.7255 C487.1354,279.0805 502.5574,291.7545 520.4264,301.4675 C524.3504,303.6025 528.3044,305.6685 532.4384,307.3815 C533.3434,307.7565 533.8064,308.1135 533.3084,309.1835 C531.8284,312.3695 530.3994,315.5805 529.0314,318.8145 C528.4904,320.0945 527.8694,320.1775 526.6224,319.6405 C516.0764,315.1055 506.2874,309.2495 496.8594,302.8345 C492.0014,299.5315 487.2374,296.0485 482.9414,291.9915 C481.7534,290.8705 480.4474,289.8225 479.1764,288.7745 C476.9764,286.9625 475.9824,284.8435 476.5884,282.0595" id="Fill-17" fill="#18B589"></path>
            <path d="M427.6748,96.9804 L426.6648,97.0014 L426.6838,96.9804 L409.3088,96.9804 L405.9708,106.0284 L410.4538,106.0284 C410.9878,106.0424 411.5208,106.0474 412.0508,106.0284 L414.1508,106.0284 C414.8828,106.3014 414.7538,107.1134 414.4978,108.0194 C412.9708,113.4304 411.7848,118.9124 410.7198,124.4294 C409.1768,132.4314 407.9828,140.4914 407.7498,148.6194 C407.4628,158.5264 407.1448,168.4754 408.2678,178.3444 C409.3728,188.0634 410.9498,197.7334 413.4308,207.2254 C413.7078,208.2904 413.4378,208.4614 412.4858,208.6904 C410.6778,209.1284 408.8398,208.9524 407.0288,209.1714 C405.7578,209.3254 405.1168,209.7764 405.6208,211.2364 C406.3528,213.3594 406.8528,215.5564 407.5178,217.7024 C407.9088,218.9644 407.6238,219.5714 406.1868,219.4474 C405.5038,219.3894 404.8108,219.4394 404.1228,219.4394 L1.3278,219.4394 L1.3278,232.0844 C52.4928,232.0954 110.1198,232.0214 161.1818,232.2094 C166.2388,232.2284 170.2548,231.4054 173.1928,227.2224 C174.3518,225.5734 175.9858,225.2784 177.9558,225.2784 C260.6988,225.3214 343.4438,225.3144 426.1868,225.3144 L429.0588,225.3144 C412.6788,182.6504 412.1698,140.0464 427.6748,96.9804" id="Fill-19" fill="#2F6AE0"></path>
            <path d="M763.3067,170.4687 C763.6967,166.4467 763.8627,162.4157 763.7647,158.3757 C763.4827,146.7087 762.2507,135.1537 759.5467,123.7747 C756.2437,109.8757 751.1947,96.6047 744.3557,84.0337 C742.0807,79.8517 739.4267,75.8487 736.8067,71.8387 C733.5467,66.8467 730.0457,62.0477 726.1767,57.5497 C721.1407,51.6977 715.9367,46.0027 709.9867,40.9497 C704.2687,36.0967 698.5227,31.3587 692.2707,27.1717 C685.6317,22.7257 678.7497,18.7427 671.5957,15.1647 C667.4187,13.0757 667.7457,14.3857 669.8877,9.8247 C671.0837,7.2777 672.5467,4.8287 673.4857,2.1967 C673.9817,0.8107 674.2717,1.0087 675.3047,1.4957 C680.6147,3.9947 685.8237,6.6797 690.8577,9.6777 C704.5807,17.8487 717.0387,27.5857 728.0787,39.0487 C731.0147,42.0987 733.7067,45.3777 736.6657,48.4047 C738.6887,50.4747 738.7327,53.0067 738.2537,55.3507 C737.5397,58.8467 739.0847,61.3097 740.9537,63.8997 C753.4497,81.2217 761.9637,100.3177 766.9837,120.9467 C769.1507,129.8527 770.4847,138.8677 771.1917,148.0187 C771.7587,155.3187 771.8297,162.6207 771.4327,169.8737 C770.6277,184.5317 767.9467,198.9147 763.2087,212.8807 C757.9027,228.5297 750.6597,243.2207 740.9457,256.7017 C740.4177,257.4357 739.6407,258.1567 739.8897,259.3007 C741.2627,265.6047 737.9437,270.0467 733.9247,274.3647 C726.1837,282.6847 718.1517,290.6807 709.0117,297.5297 C707.2057,298.8827 705.4847,301.3427 703.5487,301.1917 C702.1357,301.0807 700.9117,298.2367 699.6687,296.5637 C698.6597,295.2037 697.8287,293.7137 696.7687,292.3967 C695.8577,291.2637 696.2377,290.6727 697.2577,289.9057 C701.5477,286.6827 705.7657,283.3887 709.7257,279.7517 C712.3347,277.3547 715.0487,275.0637 717.5197,272.5177 C724.2537,265.5787 730.4957,258.2277 735.8947,250.2397 C745.8827,235.4667 753.4487,219.5747 758.0587,202.3727 C760.4547,193.4297 762.3077,184.3927 763.0047,175.1397 C763.1207,173.5857 763.2677,172.0297 763.3067,170.4687" id="Fill-21" fill="#18B589"></path>
            <path d="M666.9932,287.3554 C673.5122,284.2404 679.5892,280.4344 685.3472,276.1074 C690.0512,272.5724 694.5972,268.8754 699.0292,265.0074 C702.3952,262.0744 705.1562,258.6074 708.4772,255.6464 C710.5762,253.7744 712.2532,251.4294 714.0352,249.2304 C714.6252,248.5034 714.7132,247.9084 713.5042,247.2294 C712.5032,246.6694 710.6972,246.0694 712.5352,243.7684 C717.3262,237.7744 721.5512,231.3464 725.0232,224.4884 C726.4672,221.6364 727.9662,218.8124 729.3262,215.9234 C729.7492,215.0184 730.0162,214.8564 730.9732,215.2874 C733.3702,216.3664 735.8302,217.3184 738.2922,218.2474 C739.4562,218.6834 739.4922,219.2164 739.0102,220.2824 C733.1632,233.1844 725.6562,245.0324 716.4672,255.9084 C706.6362,267.5494 695.2792,277.4514 682.4272,285.6914 C665.9472,296.2584 648.0092,303.2984 628.7232,307.1354 C616.3212,309.6024 603.8112,310.2764 591.2302,309.7164 C574.3662,308.9654 558.1392,305.2674 542.4262,299.1524 C531.1472,294.7614 520.6742,288.9634 510.7912,282.1444 C506.0452,278.8694 501.5892,275.1764 497.2592,271.3294 C494.3172,268.7124 491.3572,266.1134 488.6982,263.2504 C479.6952,253.5544 471.6042,243.1844 465.4342,231.4624 C464.2572,229.2234 463.1292,226.9534 461.8062,224.7974 C461.1512,223.7314 461.3432,223.2224 462.3762,222.7554 C464.9292,221.5994 467.4812,220.4434 470.0232,219.2644 C471.0172,218.8034 471.4832,219.2044 471.9402,220.0894 C474.0602,224.2104 476.1642,228.3364 478.6302,232.2814 C483.3422,239.8144 488.6032,246.9574 494.7632,253.3764 C498.5252,257.2944 502.2492,261.3004 506.5502,264.6914 C507.7202,265.6144 508.1442,266.4804 506.7782,267.5624 C505.0722,268.9124 505.2422,270.0644 506.9572,271.3974 C514.6532,277.3784 522.7222,282.7884 531.4372,287.2314 C542.6532,292.9514 554.3582,297.3744 566.7122,300.0624 C573.3752,301.5094 580.0992,302.4754 586.8952,303.0994 C594.1462,303.7644 601.4232,303.8644 608.6372,303.3934 C625.7642,302.2764 642.3312,298.5284 658.0892,291.6644 C660.1702,290.7574 662.1882,289.7144 664.2352,288.7344 C665.2742,288.2514 665.9272,287.9934 666.9932,287.3554" id="Fill-23" fill="#2F6AE0"></path>
            <path d="M596.5665,9.2744 C625.3375,9.1054 649.7435,15.3704 672.6015,27.5304 C688.0495,35.7504 701.5105,46.5294 713.2425,59.3434 C723.5855,70.6374 731.8325,83.3304 738.3625,97.1154 C739.2575,99.0014 739.6165,100.2564 737.0215,100.9474 C735.1505,101.4434 733.2775,102.1684 731.6235,103.1494 C729.7885,104.2384 729.1265,103.4574 728.4165,101.9484 C727.2235,99.4144 725.9685,96.9064 724.6485,94.4334 C720.9455,87.4924 716.5845,80.9654 711.6515,74.8114 C708.3995,70.7534 704.9375,66.9204 701.1635,63.2764 C697.2515,59.4994 693.5555,55.5224 689.2005,52.2134 C688.3955,51.6014 688.1675,50.9444 689.0065,50.1674 C689.4495,49.7564 689.9405,49.3614 690.2595,48.8644 C690.7955,48.0294 691.3015,47.5654 689.9225,46.4804 C681.0875,39.5254 671.4555,33.9324 661.2725,29.1554 C649.7725,23.7584 637.7285,20.1414 625.2285,17.8584 C614.2825,15.8574 603.2295,15.1544 592.1515,15.7084 C575.4745,16.5434 559.3385,20.0274 543.8315,26.2694 C530.4035,31.6744 518.0885,38.9334 506.8795,47.9274 C492.9805,59.0804 481.5895,72.4184 472.4745,87.6294 C472.0085,88.4094 471.9045,88.8504 473.0055,89.4264 C476.2885,91.1414 476.2395,91.2374 474.6165,94.3894 C473.2925,96.9594 471.8555,99.4784 470.6965,102.1184 C470.1585,103.3434 469.7035,103.5524 468.5405,102.9924 C466.1415,101.8344 463.5895,101.0244 461.1705,99.8744 C459.9025,99.2704 459.8505,98.9294 460.2925,97.8214 C461.6315,94.4554 463.2475,91.2204 465.0505,88.0854 C468.1295,82.7334 471.3145,77.4464 474.9945,72.4594 C478.3225,67.9504 481.8035,63.5824 485.5355,59.3814 C488.3975,56.1594 491.3235,53.0014 494.5195,50.1284 C502.3845,43.0614 510.6995,36.5704 519.8675,31.1584 C524.2595,28.5654 528.6305,25.9394 533.2705,23.8324 C545.0255,18.4914 557.1995,14.4004 569.9575,11.9724 C579.6655,10.1264 589.4155,9.1504 596.5665,9.2744" id="Fill-25" fill="#2F6AE0"></path>
            <polygon id="Fill-27" fill="#FFFFFF" points="1.3277 195.8701 13.1197 195.8701 13.1197 123.1631 1.3277 123.1631 1.3277 113.0021 38.4477 113.0021 38.4477 123.1631 26.5207 123.1631 26.5207 154.1731 75.5707 154.1731 75.5707 123.1631 63.6427 123.1631 63.6427 113.0021 100.7637 113.0021 100.7637 123.1631 88.9717 123.1631 88.9717 195.8701 100.7637 195.8701 100.7637 206.1631 63.6427 206.1631 63.6427 195.8701 75.5707 195.8701 75.5707 164.9931 26.5207 164.9931 26.5207 195.8701 38.4477 195.8701 38.4477 206.1631 1.3277 206.1631"></polygon>
            <path d="M169.503,164.5966 L157.978,132.2686 C156.637,128.4416 156.37,125.1416 156.37,125.1416 L155.967,125.1416 C155.967,125.1416 155.565,128.4416 154.358,132.2686 L142.701,164.5966 L169.503,164.5966 Z M109.331,195.8696 L118.444,195.8696 L148.597,113.0016 L163.74,113.0016 L193.892,195.8696 L203.006,195.8696 L203.006,206.1626 L170.173,206.1626 L170.173,195.8696 L180.224,195.8696 L172.853,175.1536 L139.351,175.1536 L131.979,195.8696 L142.164,195.8696 L142.164,206.1626 L109.331,206.1626 L109.331,195.8696 Z" id="Fill-29" fill="#FFFFFF"></path>
            <path d="M257.2735,111.4189 C268.6635,111.4189 293.3215,115.5099 293.3215,129.8929 L293.3215,141.2409 L280.8585,141.2409 L280.8585,133.9829 C280.8585,125.8029 266.5195,122.7669 257.8085,122.7669 C237.5725,122.7669 222.6975,137.4139 222.6975,158.5259 C222.6975,180.5639 237.9745,196.2669 258.6125,196.2669 C265.3135,196.2669 282.1995,193.8919 282.1995,185.3149 L282.1995,178.0569 L294.6615,178.0569 L294.6615,189.4039 C294.6615,203.1289 270.9415,207.7459 257.8085,207.7459 C229.3985,207.7459 208.8945,186.2379 208.8945,159.0559 C208.8945,131.7399 229.9345,111.4189 257.2735,111.4189" id="Fill-31" fill="#FFFFFF"></path>
            <path d="M309.1265,195.8701 L320.9185,195.8701 L320.9185,123.1631 L309.1265,123.1631 L309.1265,113.0021 L344.6405,113.0021 L344.6405,123.1631 L334.3195,123.1631 L334.3195,152.4571 L346.5165,152.4571 L367.1535,123.1631 L358.4435,123.1631 L358.4435,113.0021 L390.4725,113.0021 L390.4725,123.1631 L381.3585,123.1631 L356.8345,156.8111 L356.8345,157.0751 C356.8345,157.0751 359.5155,158.2641 362.1955,163.2781 L379.2145,192.4391 C380.6895,194.9471 382.5645,195.8701 385.9155,195.8701 L390.3375,195.8701 L390.3375,206.1631 L380.8235,206.1631 C372.9165,206.1631 370.6385,204.3151 367.6895,199.1691 L349.4645,166.9721 C347.8555,164.3331 345.9795,163.2781 342.0945,163.2781 L334.3195,163.2781 L334.3195,195.8701 L345.9795,195.8701 L345.9795,206.1631 L309.1265,206.1631 L309.1265,195.8701 Z" id="Fill-33" fill="#FFFFFF"></path>
            <polygon id="Fill-35" fill="#FFFFFF" points="516.9898 196.0781 528.9848 196.0781 528.9848 123.6181 506.6108 123.6181 506.6108 138.2161 494.8858 138.2161 494.8858 112.7351 576.5618 112.7351 576.5618 138.2161 564.8358 138.2161 564.8358 123.6181 542.4628 123.6181 542.4628 196.0781 554.4578 196.0781 554.4578 206.4301 516.9898 206.4301"></polygon>
            <path d="M585.5821,196.0781 L597.4431,196.0781 L603.5091,122.9551 L591.3781,122.9551 L591.3781,112.7351 L618.3331,112.7351 L642.7281,169.8011 C644.2111,173.6501 644.8851,176.5701 644.8851,176.5701 L645.1551,176.5701 C645.1551,176.5701 645.8291,173.6501 647.3111,169.8011 L671.7071,112.7351 L698.6621,112.7351 L698.6621,122.9551 L686.5311,122.9551 L692.5971,196.0781 L704.4571,196.0781 L704.4571,206.4301 L667.7971,206.4301 L667.7971,196.0781 L679.2541,196.0781 L674.9401,140.0741 C674.8051,137.1541 675.3451,132.3771 675.3451,132.3771 L674.9401,132.3771 C674.9401,132.3771 673.8621,136.8901 672.7841,139.5431 L650.9501,188.7791 L639.0901,188.7791 L617.2551,139.5431 C616.1781,136.8901 615.1001,132.3771 615.1001,132.3771 L614.6951,132.3771 C614.6951,132.3771 615.2331,137.1541 615.1001,140.0741 L610.7861,196.0781 L622.2431,196.0781 L622.2431,206.4301 L585.5821,206.4301 L585.5821,196.0781 Z" id="Fill-37" fill="#FFFFFF"></path>
            <polygon id="Fill-1" fill="#FFFFFF" points="30.3732 249.1574 0.0002 320.0004 9.6532 320.0004 40.0702 249.1574"></polygon>
            <polygon id="Fill-2" fill="#FFFFFF" points="69.0561 249.1574 38.6831 320.0004 48.3361 320.0004 78.7531 249.1574"></polygon>
        </g>
    </g>
</svg>