<?xml version="1.0" encoding="UTF-8"?>
<svg width="237px" height="100px" viewBox="0 0 237 100" version="1.1" xmlns="http://www.w3.org/2000/svg" xmlns:xlink="http://www.w3.org/1999/xlink">
    <!-- Generator: Sketch 50.2 (55047) - http://www.bohemiancoding.com/sketch -->
    <title>logo_site</title>
    <desc>Created with Sketch.</desc>
    <defs></defs>
    <g id="Coming-Soon" stroke="none" stroke-width="1" fill="none" fill-rule="evenodd">
        <g transform="translate(-602.000000, -160.000000)" id="logo_site">
            <g transform="translate(602.000000, 160.000000)">
                <path d="M51.8585,86.007 C51.8585,79.002 61.7675,78.1403333 61.7675,73.3036667 C61.7675,71.274 60.2988333,69.9956667 58.1818333,69.9956667 C55.5558333,69.9956667 54.0601667,72.6086667 54.0601667,72.6086667 L52.0838333,71.274 C52.0838333,71.274 53.8908333,67.5493333 58.4071667,67.5493333 C62.0495,67.5493333 64.7035,69.801 64.7035,73.1923333 C64.7035,79.5023333 54.9635,80.531 54.9071667,85.2286667 L63.0375,85.2286667 L63.0375,82.616 L65.4938333,82.616 L65.4938333,87.508 L51.9991667,87.508 C51.9145,86.98 51.8585,86.4796667 51.8585,86.007" id="Fill-1" fill="#FFFFFF"></path>
                <path d="M79.9486667,77.6678 C79.9486667,73.3868 79.0166667,69.9954667 75.7703333,69.9954667 C72.496,69.9954667 71.5923333,73.3868 71.5923333,77.6678 C71.5923333,82.0041333 72.496,85.3678 75.7703333,85.3678 C79.0166667,85.3678 79.9486667,82.0041333 79.9486667,77.6678 M68.713,77.6678 C68.713,72.0248 70.435,67.5494667 75.7703333,67.5494667 C81.078,67.5494667 82.828,72.0248 82.828,77.6678 C82.828,83.3384667 81.078,87.8414667 75.7703333,87.8414667 C70.435,87.8414667 68.713,83.3384667 68.713,77.6678" id="Fill-3" fill="#FFFFFF"></path>
                <path d="M85.9624333,85.2285 L90.3661,85.2285 L90.3661,72.4418333 C90.3661,71.8301667 90.3951,71.2465 90.3951,71.2465 L90.3384333,71.2465 C90.3384333,71.2465 90.1127667,71.6635 89.3784333,72.3581667 L87.5147667,74.1651667 L85.8217667,72.4418333 L90.5924333,67.8831667 L93.0767667,67.8831667 L93.0767667,85.2285 L97.4244333,85.2285 L97.4244333,87.5081667 L85.9624333,87.5081667 L85.9624333,85.2285 Z" id="Fill-5" fill="#FFFFFF"></path>
                <path d="M107.576,76.4173333 C108.243667,76.4173333 109.660667,74.7763333 109.660667,73.0256667 C109.660667,71.2183333 108.215333,70.0786667 106.214667,70.0786667 C104.073333,70.0786667 102.823,71.3023333 102.823,72.8593333 C102.823,74.5816667 104.296333,75.2496667 106.047,75.9443333 C106.436333,76.1106667 107.243333,76.4173333 107.576,76.4173333 M106.131,85.3123333 C108.188333,85.3123333 110.105333,83.95 110.105333,82.0043333 C110.105333,80.281 108.633,79.5306667 106.797333,78.779 C106.047,78.4736667 104.991333,78.057 104.768333,78.057 C104.073333,78.057 102.099667,79.6686667 102.099667,81.7543333 C102.099667,83.95 103.991,85.3123333 106.131,85.3123333 M102.517333,76.862 L102.517333,76.8056667 C102.517333,76.8056667 100.099,75.528 100.099,72.8026667 C100.099,70.0786667 102.267333,67.5493333 106.214667,67.5493333 C109.967333,67.5493333 112.357333,69.8016667 112.357333,72.8593333 C112.357333,75.7496667 109.994333,77.5286667 109.994333,77.5286667 L109.994333,77.584 C111.773333,78.6126667 112.913,79.9753333 112.913,82.087 C112.913,85.145 110.133667,87.8416667 106.131,87.8416667 C102.433667,87.8416667 99.2933333,85.5343333 99.2933333,81.8923333 C99.2933333,78.6683333 102.517333,76.862 102.517333,76.862" id="Fill-7" fill="#FFFFFF"></path>
                <polygon id="Fill-9" fill="#FFFFFF" points="1.08566667 54.1935333 4.15466667 54.1935333 4.15466667 34.9745333 1.08566667 34.9745333 1.08566667 32.2892 10.747 32.2892 10.747 34.9745333 7.64266667 34.9745333 7.64266667 43.1715333 20.4083333 43.1715333 20.4083333 34.9745333 17.3043333 34.9745333 17.3043333 32.2892 26.966 32.2892 26.966 34.9745333 23.8966667 34.9745333 23.8966667 54.1935333 26.966 54.1935333 26.966 56.9138667 17.3043333 56.9138667 17.3043333 54.1935333 20.4083333 54.1935333 20.4083333 46.0315333 7.64266667 46.0315333 7.64266667 54.1935333 10.747 54.1935333 10.747 56.9138667 1.08566667 56.9138667"></polygon>
                <path d="M44.8571667,45.9271 L41.8568333,37.3814333 C41.5078333,36.3704333 41.4381667,35.4981 41.4381667,35.4981 L41.3335,35.4981 C41.3335,35.4981 41.2291667,36.3704333 40.9148333,37.3814333 L37.8805,45.9271 L44.8571667,45.9271 Z M29.1958333,54.1934333 L31.5675,54.1934333 L39.4151667,32.2891 L43.3565,32.2891 L51.2041667,54.1934333 L53.5761667,54.1934333 L53.5761667,56.9137667 L45.0308333,56.9137667 L45.0308333,54.1934333 L47.6471667,54.1934333 L45.7285,48.7174333 L37.0088333,48.7174333 L35.0898333,54.1934333 L37.7411667,54.1934333 L37.7411667,56.9137667 L29.1958333,56.9137667 L29.1958333,54.1934333 Z" id="Fill-11" fill="#FFFFFF"></path>
                <path d="M67.7007333,31.8704333 C70.6654,31.8704333 77.0827333,32.9521 77.0827333,36.7537667 L77.0827333,39.7534333 L73.8390667,39.7534333 L73.8390667,37.8351 C73.8390667,35.6724333 70.1070667,34.8704333 67.8397333,34.8704333 C62.5727333,34.8704333 58.7017333,38.7417667 58.7017333,44.3224333 C58.7017333,50.1474333 62.6774,54.2977667 68.0490667,54.2977667 C69.7930667,54.2977667 74.1880667,53.6701 74.1880667,51.4034333 L74.1880667,49.4847667 L77.4314,49.4847667 L77.4314,52.4841 C77.4314,56.1117667 71.2580667,57.3324333 67.8397333,57.3324333 C60.4454,57.3324333 55.1087333,51.6474333 55.1087333,44.4617667 C55.1087333,37.2417667 60.5850667,31.8704333 67.7007333,31.8704333" id="Fill-13" fill="#FFFFFF"></path>
                <path d="M81.1961,54.1935333 L84.2654333,54.1935333 L84.2654333,34.9745333 L81.1961,34.9745333 L81.1961,32.2892 L90.4394333,32.2892 L90.4394333,34.9745333 L87.7534333,34.9745333 L87.7534333,42.7182 L90.9277667,42.7182 L96.2987667,34.9745333 L94.0317667,34.9745333 L94.0317667,32.2892 L102.368433,32.2892 L102.368433,34.9745333 L99.9957667,34.9745333 L93.6137667,43.8688667 L93.6137667,43.9385333 C93.6137667,43.9385333 94.3111,44.2528667 95.0087667,45.5785333 L99.4381,53.2865333 C99.8221,53.9492 100.310767,54.1935333 101.1821,54.1935333 L102.3331,54.1935333 L102.3331,56.9138667 L99.8567667,56.9138667 C97.7991,56.9138667 97.2061,56.4255333 96.4387667,55.0652 L91.6954333,46.5548667 C91.2764333,45.8575333 90.7881,45.5785333 89.7774333,45.5785333 L87.7534333,45.5785333 L87.7534333,54.1935333 L90.7881,54.1935333 L90.7881,56.9138667 L81.1961,56.9138667 L81.1961,54.1935333 Z" id="Fill-15" fill="#FFFFFF"></path>
                <path d="M140.978667,35.729 L136.013333,35.729 C135.523667,35.729 135.244,35.9743333 135.244,36.4986667 L135.244,38.0723333 L132.132,38.0723333 L132.132,34.82 C132.132,33.2463333 132.656,32.722 134.23,32.722 L151.224333,32.722 C152.798,32.722 153.322667,33.2463333 153.322667,34.82 L153.322667,38.0723333 L150.210667,38.0723333 L150.210667,36.4986667 C150.210667,35.9743333 149.930667,35.729 149.441,35.729 L144.475667,35.729 L144.475667,57.41 L140.978667,57.41 L140.978667,35.729 Z" id="Fill-17" fill="#FFFFFF"></path>
                <path d="M159.790333,55.1019 C162.657333,55.1019 164.511,52.0945667 164.511,49.4715667 L164.511,48.8775667 L163.636667,48.8775667 C161.084,48.8775667 156.468,49.0175667 156.468,52.2692333 C156.468,53.7029 157.552333,55.1019 159.790333,55.1019 M163.706667,46.3945667 L164.476,46.3945667 L164.476,46.2199 C164.476,43.1079 163.322,41.9889 160.559333,41.9889 C159.720333,41.9889 157.657,42.1982333 157.657,43.3525667 L157.657,44.3665667 L154.475,44.3665667 L154.475,42.6182333 C154.475,39.7155667 158.881,39.2962333 160.594667,39.2962333 C166.329,39.2962333 167.868,42.3035667 167.868,46.2199 L167.868,53.7382333 C167.868,54.2625667 168.147667,54.5072333 168.637,54.5072333 L170.071,54.5072333 L170.071,57.4099 L166.888667,57.4099 C165.315333,57.4099 164.686,56.6405667 164.686,55.3815667 C164.686,54.7872333 164.755667,54.3325667 164.755667,54.3325667 L164.686,54.3325667 C164.686,54.3325667 163.287,57.8295667 159.055667,57.8295667 C156.013333,57.8295667 153.041,55.9762333 153.041,52.4445667 C153.041,46.7442333 160.734,46.3945667 163.706667,46.3945667" id="Fill-19" fill="#FFFFFF"></path>
                <path d="M173.236267,36.3937333 C173.236267,35.8690667 172.9566,35.6244 172.467267,35.6244 L171.0336,35.6244 L171.0336,32.7220667 L174.3906,32.7220667 C175.9636,32.7220667 176.6286,33.3864 176.6286,34.9600667 L176.6286,53.7380667 C176.6286,54.2624 176.907933,54.5070667 177.3976,54.5070667 L178.831267,54.5070667 L178.831267,57.4100667 L175.474267,57.4100667 C173.900933,57.4100667 173.236267,56.7454 173.236267,55.1717333 L173.236267,36.3937333 Z" id="Fill-21" fill="#FFFFFF"></path>
                <path d="M182.102267,36.3937333 C182.102267,35.8690667 181.8226,35.6244 181.333267,35.6244 L179.8996,35.6244 L179.8996,32.7220667 L183.2566,32.7220667 C184.830267,32.7220667 185.4946,33.1767333 185.4946,34.7500667 L185.4946,46.2200667 L187.068267,46.2200667 C187.697267,46.2200667 188.4666,46.0454 188.9216,45.4504 L193.0126,39.7154 L196.894267,39.7154 L192.1036,46.2897333 C191.2996,47.3737333 190.7746,47.6184 190.7746,47.6184 L190.7746,47.6884 C190.7746,47.6884 191.368933,47.8984 191.9636,49.0174 L194.5866,53.8080667 C194.865933,54.3677333 195.2156,54.5070667 196.089933,54.5070667 L197.173933,54.5070667 L197.173933,57.4100667 L194.725933,57.4100667 C193.0826,57.4100667 192.557933,57.1297333 191.788933,55.7664 L188.5716,49.8217333 C188.187267,49.1570667 187.3826,49.0874 186.8236,49.0874 L185.4946,49.0874 L185.4946,57.4100667 L182.102267,57.4100667 L182.102267,36.3937333 Z" id="Fill-23" fill="#FFFFFF"></path>
                <path d="M200.319667,52.4445 C200.319667,52.4445 202.417667,55.0668333 205.67,55.0668333 C207.313333,55.0668333 208.747,54.3325 208.747,52.7938333 C208.747,49.6115 199.095333,49.9618333 199.095333,44.2615 C199.095333,40.8698333 202.068333,39.2961667 205.67,39.2961667 C207.802667,39.2961667 211.474333,40.0301667 211.474333,42.7228333 L211.474333,44.4015 L208.432333,44.4015 L208.432333,43.5271667 C208.432333,42.4781667 206.858333,42.0235 205.774667,42.0235 C203.781333,42.0235 202.487667,42.7228333 202.487667,44.1215 C202.487667,47.4785 212.139,46.7441667 212.139,52.6538333 C212.139,55.8015 209.341667,57.8295 205.634667,57.8295 C200.914,57.8295 198.571333,54.7171667 198.571333,54.7171667 L200.319667,52.4445 Z" id="Fill-25" fill="#FFFFFF"></path>
                <path d="M190.160633,100 C189.719633,100 189.281633,99.8086667 188.980967,99.44 L177.193633,84.9713333 L158.035967,85.0883333 C142.321967,84.843 128.332633,76.2276667 121.4933,62.6036667 C121.116633,61.8533333 121.419633,60.9393333 122.169967,60.5626667 C122.9213,60.1856667 123.833967,60.4893333 124.210633,61.2393333 C130.539967,73.8473333 143.5063,81.8206667 158.0503,82.0476667 L178.631633,81.9223333 L191.338633,97.5193333 C191.868967,98.1706667 191.770967,99.128 191.119967,99.6586667 C190.837967,99.888 190.4983,100 190.160633,100" id="Fill-27" fill="#EE5427"></path>
                <path d="M143.436367,85.0890333 C135.089367,82.1757 127.952367,76.9310333 122.7967,69.9230333 C117.5217,62.7520333 114.733033,54.2420333 114.733033,45.3130333 C114.733033,36.3840333 117.5217,27.8737 122.7967,20.7023667 C127.952367,13.6943667 135.089367,8.4497 143.436367,5.53636667 C144.229033,5.25936667 144.647367,4.39303333 144.3707,3.60003333 C144.0937,2.8067 143.227367,2.38836667 142.434367,2.66536667 C133.5057,5.78203333 125.868367,11.3960333 120.3477,18.9007 C114.6857,26.5977 111.6927,35.7310333 111.6927,45.3130333 C111.6927,54.8947 114.6857,64.0280333 120.3477,71.7253667 C125.868367,79.2293667 133.5057,84.8433667 142.434367,87.9600333 C142.600367,88.0177 142.769033,88.0453667 142.935367,88.0453667 C143.564033,88.0453667 144.152033,87.6523667 144.3707,87.0257 C144.647367,86.2327 144.229033,85.3660333 143.436367,85.0890333" id="Fill-29" fill="#00BD5C"></path>
                <path d="M229.513867,43.5908333 C228.6742,43.5908333 227.993533,44.2715 227.993533,45.1111667 C227.993533,50.7998333 226.712867,56.2355 224.186867,61.2668333 C218.3102,72.9738333 206.3062,80.8141667 192.8592,81.7278333 C192.021533,81.7848333 191.388533,82.5101667 191.445533,83.3478333 C191.5002,84.1505 192.1682,84.7648333 192.960533,84.7648333 C192.995533,84.7648333 193.0302,84.7638333 193.065533,84.7615 C207.580867,83.7755 220.546867,75.2955 226.9042,62.6311667 C229.644533,57.1725 231.0342,51.2778333 231.0342,45.1111667 C231.0342,44.2715 230.3532,43.5908333 229.513867,43.5908333" id="Fill-31" fill="#FCB61A"></path>
                <path d="M191.391567,5.8444 L158.437567,5.72306667 C142.7569,5.96806667 128.767233,14.5834 121.928233,28.2077333 C121.150567,29.7564 120.4699,31.3714 119.9049,33.0074 C119.6309,33.8010667 120.0519,34.6667333 120.845567,34.9410667 C121.010233,34.9970667 121.177233,35.0244 121.3419,35.0244 C121.972233,35.0244 122.561567,34.6290667 122.7789,34.0000667 C123.2999,32.4907333 123.928233,31.0010667 124.645567,29.5720667 C130.974567,16.9634 143.941233,8.9904 158.4559,8.76373333 L191.380567,8.88506667 L191.386233,8.88506667 C192.2229,8.88506667 192.903233,8.20806667 192.906233,7.3704 C192.909233,6.53073333 192.231567,5.8474 191.391567,5.8444" id="Fill-33" fill="#FCB61A"></path>
                <path d="M228.156833,18.9007 C222.636167,11.3960333 214.9985,5.78203333 206.0695,2.66536667 C205.967833,2.63003333 205.864833,2.6067 205.762167,2.5937 C201.024833,0.9527 196.0395,0.0803666667 190.8855,3.33333333e-05 L171.451833,3.33333333e-05 C170.6125,3.33333333e-05 169.931833,0.6807 169.931833,1.52036667 C169.931833,2.3597 170.6125,3.04036667 171.451833,3.04036667 L190.861833,3.04036667 C196.676833,3.13136667 202.280833,4.30236667 207.517833,6.5217 C207.6315,6.57003333 207.748167,6.6017 207.865167,6.62103333 C215.010833,9.66636667 221.138167,14.4910333 225.7075,20.7023667 C230.982833,27.8733667 233.7715,36.3840333 233.7715,45.3130333 C233.7715,61.6890333 224.3905,76.2697 209.2895,83.3660333 C208.5295,83.7233667 208.202833,84.6290333 208.559833,85.3883667 C208.819167,85.9397 209.365833,86.2627 209.936833,86.2627 C210.1535,86.2627 210.373833,86.2160333 210.5825,86.1180333 C226.761167,78.5153667 236.811833,62.8797 236.811833,45.3130333 C236.811833,35.7310333 233.818833,26.5977 228.156833,18.9007" id="Fill-35" fill="#2F6AE0"></path>
                <path d="M111.759333,62.5078 C111.761,62.4821333 111.762667,62.4564667 111.763333,62.4308 C111.763333,62.4238 111.764333,62.4171333 111.764333,62.4101333 C111.764333,62.3984667 111.762667,62.3874667 111.762667,62.3758 C111.762,62.3404667 111.760333,62.3048 111.757,62.2688 C111.756,62.2568 111.754667,62.2448 111.753,62.2331333 C111.748667,62.1931333 111.742667,62.1531333 111.735,62.1131333 C111.733333,62.1051333 111.731333,62.0974667 111.729667,62.0894667 C111.720667,62.0464667 111.709667,62.0038 111.697,61.9611333 C111.696,61.9584667 111.695,61.9554667 111.694,61.9524667 C111.684667,61.9228 111.676333,61.8924667 111.665,61.8628 C109.661333,56.5904667 108.644667,51.0201333 108.644667,45.3061333 C108.644667,40.0318 109.513667,34.8658 111.227333,29.9518 C111.504,29.1588 111.085333,28.2921333 110.292333,28.0154667 C109.497333,27.7404667 108.632,28.1584667 108.356333,28.9504667 C106.530333,34.1874667 105.604333,39.6904667 105.604333,45.3061333 C105.604333,50.6541333 106.441667,55.8858 108.094667,60.8891333 L1.52066667,60.8728 L1.52033333,60.8728 C0.680666667,60.8728 0,61.5531333 0,62.3928 C0,63.2324667 0.680333333,63.9134667 1.51966667,63.9134667 L110.243667,63.9301333 L110.244,63.9301333 C111.010333,63.9301333 111.642667,63.3624667 111.747333,62.6254667 C111.748667,62.6154667 111.750667,62.6058 111.751667,62.5961333 C111.755333,62.5668 111.757333,62.5374667 111.759333,62.5078" id="Fill-37" fill="#2F6AE0"></path>
            </g>
        </g>
    </g>
</svg>